<?xml version="1.0" encoding="UTF-8" standalone="no"?><!DOCTYPE svg PUBLIC "-//W3C//DTD SVG 1.1//EN" "http://www.w3.org/Graphics/SVG/1.1/DTD/svg11.dtd"><svg width="100%" height="100%" viewBox="0 0 237 240" version="1.1" xmlns="http://www.w3.org/2000/svg" xmlns:xlink="http://www.w3.org/1999/xlink" xml:space="preserve" style="fill-rule:evenodd;clip-rule:evenodd;stroke-linejoin:round;stroke-miterlimit:1.41421;"><path d="M225.375,120.084c0.041,-6.785 4.272,-12.519 10.169,-14.879l1.393,-1.981c-0.121,-1.287 -0.34,-2.544 -0.625,-3.881c-0.121,-1.331 -0.468,-2.591 -0.712,-3.794l-2.109,-1.509c-6.316,-0.244 -12.132,-4.297 -14.419,-10.581c-2.284,-6.332 -0.284,-13.169 4.494,-17.41l0.69,-2.309c-1.275,-2.378 -2.572,-4.638 -3.928,-6.816l-2.49,-0.678c-6,1.906 -12.885,0.141 -17.119,-4.994c-4.375,-5.212 -4.8,-12.334 -1.781,-17.884l-0.285,-2.491c-1.884,-1.753 -3.844,-3.434 -5.934,-5.022l-2.51,0.222c-5.04,3.888 -12.053,4.578 -17.865,1.157c-5.813,-3.385 -8.713,-9.885 -7.741,-16.225l-1.031,-2.207c-2.409,-0.975 -4.881,-1.906 -7.372,-2.675l-2.325,1.053c-3.428,5.307 -9.787,8.407 -16.387,7.2c-6.647,-1.243 -11.569,-6.328 -12.844,-12.609l-1.66,-1.703c-2.593,-0.091 -5.246,-0.091 -7.878,0l-1.822,1.791c-1.359,6.187 -6.337,11.234 -12.922,12.337c-6.624,1.103 -13.081,-1.987 -16.365,-7.431l-2.166,-0.975c-2.512,0.787 -5.003,1.619 -7.372,2.584l-1.078,2.319c0.835,6.278 -2.147,12.741 -7.897,16.022c-5.875,3.381 -12.962,2.603 -18.006,-1.378l-2.453,-0.232c-2.006,1.613 -4.009,3.294 -5.994,5.075l-0.203,2.544c2.978,5.591 2.409,12.669 -1.925,17.753c-4.416,5.116 -11.325,6.866 -17.337,4.863l-2.332,0.587c-1.478,2.228 -2.734,4.485 -3.99,6.838l0.628,2.45c4.719,4.247 6.603,11.131 4.294,17.312c-2.329,6.388 -8.285,10.316 -14.604,10.46l-2.084,1.428c-0.528,2.594 -1.012,5.084 -1.378,7.678l1.478,2.144c5.853,2.4 10.006,8.156 9.947,14.847c0,6.787 -4.216,12.518 -10.209,14.881l-1.316,1.931c0.141,1.306 0.303,2.644 0.525,3.881c0.284,1.347 0.528,2.594 0.791,3.875l2.084,1.45c6.319,0.272 12.172,4.325 14.441,10.572c2.246,6.372 0.284,13.206 -4.497,17.369l-0.628,2.453c1.156,2.297 2.453,4.619 3.828,6.731l2.534,0.7c5.997,-1.9 12.863,-0.172 17.197,4.994c4.334,5.228 4.741,12.334 1.744,17.888l0.162,2.44c1.903,1.753 3.969,3.463 6.016,5.072l2.55,-0.272c5,-3.834 12.031,-4.478 17.844,-1.103c5.79,3.409 8.75,9.878 7.8,16.219l0.99,2.206c2.369,0.975 4.882,1.894 7.313,2.738l2.347,-1.116c3.403,-5.369 9.784,-8.378 16.368,-7.203c6.625,1.247 11.607,6.331 12.822,12.625l1.76,1.687c2.593,0.088 5.206,0.088 7.878,0l1.784,-1.8c1.338,-6.181 6.253,-11.225 12.9,-12.365c6.644,-1.125 13.044,2.025 16.347,7.475l2.181,1.012c2.538,-0.79 4.988,-1.659 7.356,-2.625l1.135,-2.359c-0.85,-6.238 2.084,-12.75 7.859,-15.928c5.935,-3.488 12.981,-2.66 18.01,1.365l2.368,0.153c2.085,-1.515 4.11,-3.284 6.075,-5.006l0.144,-2.54c-2.897,-5.641 -2.309,-12.697 2.044,-17.782c4.356,-5.165 11.262,-6.837 17.278,-4.853l2.369,-0.647c1.375,-2.175 2.715,-4.437 3.972,-6.787l-0.713,-2.4c-4.622,-4.25 -6.6,-11.078 -4.194,-17.419c2.31,-6.341 8.207,-10.256 14.625,-10.397l2.01,-1.484c0.544,-2.538 0.931,-5.028 1.393,-7.622l-1.54,-2.169c-5.785,-2.412 -9.897,-8.084 -9.897,-14.84ZM151.882,59.619c-0.164,0 -0.328,0.03 -0.482,0.087c-4.82,1.664 -8.473,4.142 -11.088,7.582c-2.332,3.068 -3.804,6.878 -4.865,11.439c-7.961,-3.525 -16.458,-5.04 -24.323,-5.04c-8.303,0 -16.029,2.215 -21.694,7.45c-5.619,5.193 -9.061,13.3 -9.115,24.542c-8.422,19.321 -9.379,33.391 -7.188,43.388c2.083,9.503 6.958,15.154 10.65,18.275c-0.334,0.997 -0.658,2.017 -0.658,3.112c0,5.405 4.412,9.817 9.817,9.817c3.493,0 6.503,-1.884 8.24,-4.646c16.71,2.59 29.781,-6.865 38.479,-16.96c8.345,-9.687 12.727,-19.718 13.235,-20.905c1.753,-1.109 12.972,-8.717 12.972,-22.001c0.001,-0.014 0.001,-0.029 0,-0.044c-0.409,-14.728 -12.882,-28.231 -27.873,-35.761c1.017,-4.588 2.451,-8.185 4.558,-10.957c2.262,-2.976 5.305,-5.09 9.729,-6.617c0.664,-0.169 1.149,-0.857 1.052,-1.534c-0.097,-0.678 -0.762,-1.251 -1.446,-1.227ZM82.374,108.002c19.345,12.033 34.64,21.214 67.536,29.714c-1.434,3.048 -5.579,11.188 -12.403,19.108c-8.535,9.907 -20.841,18.898 -36.77,15.996c-0.598,-0.122 -1.259,0.199 -1.533,0.745c-1.145,2.32 -3.493,3.901 -6.268,3.901c-3.889,0 -7.012,-3.123 -7.012,-7.012c0,-1.077 0.237,-2.086 0.658,-2.98c0.274,-0.57 0.101,-1.318 -0.395,-1.71c-3.364,-2.68 -8.25,-7.962 -10.299,-17.311c-1.994,-9.102 -1.282,-22.148 6.486,-40.451ZM111.124,76.491c8.001,0 16.707,1.601 24.674,5.435c14.746,7.096 26.886,20.381 27.26,33.833c0,11.904 -10.233,18.71 -11.483,19.503c-33.659,-8.597 -48.563,-17.756 -68.412,-30.109c0.163,-10.357 3.306,-17.438 8.196,-21.956c5.021,-4.641 11.964,-6.706 19.765,-6.706Z" style="fill:#000;"/></svg>